<svg width="20" height="20" viewBox="0 0 20 20" fill="none" xmlns="http://www.w3.org/2000/svg">
<path d="M16.6599 2.70017H3.33994C2.92661 2.70017 2.53994 2.80017 2.17994 3.00017C1.81994 3.20017 1.53327 3.4735 1.31994 3.82017C1.10661 4.16684 0.999939 4.54684 0.999939 4.96017V14.9602C0.999939 15.3735 1.10327 15.7602 1.30994 16.1202C1.51661 16.4802 1.79661 16.7668 2.14994 16.9802C2.50327 17.1935 2.89994 17.3002 3.33994 17.3002H16.6599C17.0733 17.3002 17.4599 17.1968 17.8199 16.9902C18.1799 16.7835 18.4666 16.5035 18.6799 16.1502C18.8933 15.7968 18.9999 15.4002 18.9999 14.9602V4.96017C18.9999 4.54684 18.8933 4.16684 18.6799 3.82017C18.4666 3.4735 18.1799 3.20017 17.8199 3.00017C17.4599 2.80017 17.0733 2.70017 16.6599 2.70017ZM3.33994 3.96017H16.6599C16.9533 3.96017 17.1933 4.06017 17.3799 4.26017C17.5666 4.46017 17.6599 4.6935 17.6599 4.96017V5.46017L10.4999 10.0402C10.3266 10.1202 10.1466 10.1602 9.95994 10.1602C9.77327 10.1602 9.59327 10.1202 9.41994 10.0402L2.33994 5.46017V4.96017C2.33994 4.66684 2.43327 4.42684 2.61994 4.24017C2.80661 4.0535 3.04661 3.96017 3.33994 3.96017ZM16.6599 16.0402H3.33994C3.05994 16.0402 2.82327 15.9368 2.62994 15.7302C2.43661 15.5235 2.33994 15.2935 2.33994 15.0402V6.96017L8.83994 11.1202C9.11994 11.3468 9.50661 11.4602 9.99994 11.4602C10.4933 11.4602 10.8799 11.3468 11.1599 11.1202L17.6599 6.96017V14.9602C17.6599 15.2535 17.5666 15.5068 17.3799 15.7202C17.1933 15.9335 16.9533 16.0402 16.6599 16.0402Z" fill="#3F4245"/>
</svg>
