<svg width="16" height="16" viewBox="0 0 16 16" fill="none" xmlns="http://www.w3.org/2000/svg">
<g clip-path="url(#clip0_161_931)">
<path d="M10.9724 8.93L11.3924 6.215H8.78241V4.46C8.78241 4.04 8.89241 3.705 9.11241 3.455C9.38241 3.145 9.78241 2.99 10.3124 2.99H11.4974V0.68L10.8374 0.59C10.3074 0.530001 9.82741 0.5 9.39741 0.5C8.67741 0.5 8.05241 0.6425 7.52241 0.927501C6.99241 1.2125 6.58241 1.63 6.29241 2.18C6.00241 2.73 5.85741 3.39 5.85741 4.16V6.215H3.47241V8.93H5.85741V15.5H8.78241V8.93H10.9724Z" fill="#1877F2"/>
</g>
<defs>
<clipPath id="clip0_161_931">
<rect width="15" height="15" fill="white" transform="matrix(1 0 0 -1 0.5 15.5)"/>
</clipPath>
</defs>
</svg>
