<svg width="256" height="80" viewBox="0 0 256 80" fill="none" xmlns="http://www.w3.org/2000/svg">
<g clip-path="url(#clip0_337_113)">
<path d="M0.5 0C26.9177 0 53.3354 0 80.5536 0C80.5536 26.4 80.5536 52.8 80.5536 80C54.1359 80 27.7182 80 0.5 80C0.5 53.6 0.5 27.2 0.5 0ZM6.35758 6.2439C6.31883 7.11231 6.30825 7.98196 6.30799 8.85123C6.30738 9.12698 6.30677 9.40272 6.30615 9.68683C6.30458 10.6177 6.30583 11.5485 6.30705 12.4794C6.30652 13.144 6.30583 13.8085 6.30498 14.4731C6.30319 16.2832 6.30389 18.0932 6.30513 19.9033C6.30611 21.7932 6.3052 23.6831 6.30458 25.573C6.30387 28.7474 6.30481 31.9218 6.30667 35.0962C6.30879 38.7718 6.30811 42.4473 6.30596 46.1229C6.30419 49.2727 6.30393 52.4225 6.30496 55.5722C6.30557 57.4561 6.30564 59.3399 6.30436 61.2238C6.30323 62.9944 6.304 64.7651 6.30627 66.5357C6.30679 67.1875 6.30663 67.8393 6.30577 68.491C6.30472 69.377 6.30604 70.2628 6.30799 71.1488C6.30814 71.6458 6.30829 72.1428 6.30844 72.6548C6.23168 73.7181 6.23168 73.7181 6.74809 74.1463C7.62291 74.1842 8.49896 74.1939 9.37461 74.1933C9.79031 74.1938 9.79031 74.1938 10.2144 74.1943C11.1529 74.1949 12.0913 74.1928 13.0298 74.1906C13.7102 74.1905 14.3906 74.1906 15.0709 74.1908C16.8994 74.1909 18.7279 74.1886 20.5564 74.1859C22.2697 74.1836 23.983 74.1835 25.6963 74.1833C30.713 74.1812 35.7297 74.1758 40.7465 74.1707C51.9498 74.1627 63.1532 74.1546 74.696 74.1463C74.696 51.6098 74.696 29.0732 74.696 5.85366C63.4927 5.84561 52.2893 5.83756 40.7465 5.82927C37.2027 5.82572 33.6588 5.82216 30.0077 5.8185C26.8444 5.8172 26.8444 5.8172 23.6811 5.81641C22.2668 5.81605 20.8526 5.81458 19.4383 5.81246C17.6379 5.80979 15.8374 5.80898 14.037 5.80953C13.374 5.80942 12.711 5.80863 12.0481 5.80714C11.1569 5.80521 10.2658 5.80566 9.37461 5.80673C8.8739 5.80637 8.37319 5.80601 7.8573 5.80564C6.78697 5.72688 6.78697 5.72688 6.35758 6.2439Z" fill="#FCD54C"/>
<path d="M178.18 25.3658C180.371 25.3658 182.561 25.3658 184.819 25.3658C186.348 28.609 187.667 31.8973 188.92 35.2534C189.24 36.1079 189.563 36.961 189.887 37.814C190.092 38.3597 190.296 38.9054 190.501 39.4512C190.597 39.7049 190.693 39.9585 190.793 40.2198C191.199 41.3148 191.457 42.138 191.457 43.3171C191.715 43.3171 191.973 43.3171 192.238 43.3171C192.328 42.8412 192.417 42.3653 192.51 41.875C193.058 39.4144 193.995 37.1187 194.923 34.7805C195.264 33.9117 195.605 33.0428 195.945 32.1738C196.109 31.7559 196.273 31.338 196.442 30.9074C197.152 29.0701 197.82 27.2195 198.486 25.3658C200.806 25.3658 203.125 25.3658 205.515 25.3658C205.752 27.0238 205.958 28.5233 206.022 30.1714C206.045 30.7503 206.045 30.7503 206.069 31.3408C206.084 31.751 206.099 32.1612 206.115 32.5838C206.14 33.2314 206.14 33.2314 206.166 33.8921C206.201 34.8049 206.235 35.7178 206.269 36.6306C206.32 38.0076 206.374 39.3845 206.428 40.7614C206.606 45.3894 206.73 50.0027 206.687 54.6341C204.496 54.6341 202.305 54.6341 200.048 54.6341C199.919 49.4829 199.791 44.3317 199.658 39.0244C198.111 42.8878 196.565 46.7512 194.972 50.7317C192.91 50.7317 190.848 50.7317 188.724 50.7317C188.088 49.2199 187.454 47.7077 186.82 46.1951C186.64 45.768 186.46 45.3409 186.275 44.9009C186.102 44.4859 185.928 44.0709 185.749 43.6433C185.59 43.2632 185.43 42.8831 185.266 42.4914C184.813 41.352 184.425 40.1874 184.038 39.0244C183.909 44.1756 183.78 49.3268 183.647 54.6341C181.456 54.6341 179.266 54.6341 177.008 54.6341C177.102 51.4518 177.197 48.2695 177.294 45.0873C177.339 43.6093 177.383 42.1312 177.426 40.6531C177.468 39.2234 177.511 37.7938 177.555 36.3642C177.572 35.8221 177.588 35.2799 177.604 34.7378C177.694 31.5981 177.86 28.4908 178.18 25.3658Z" fill="#FCD54C"/>
<path d="M39.5505 30.8292C41.7413 30.8292 43.932 30.8292 46.1891 30.8292C47.8644 34.9502 49.5397 39.0712 51.2657 43.317C52.2673 42.3161 52.6424 41.1936 53.1481 39.8993C53.251 39.6406 53.3539 39.3818 53.4599 39.1152C53.788 38.2889 54.1133 37.4615 54.4386 36.6341C54.6606 36.0736 54.8828 35.5131 55.1052 34.9527C55.6502 33.5792 56.1914 32.2042 56.7328 30.8292C58.9235 30.8292 61.1143 30.8292 63.3714 30.8292C63.5406 33.23 63.7074 35.6309 63.8719 38.032C63.928 38.8464 63.9849 39.6608 64.0424 40.4752C64.3576 44.9455 64.6188 49.3702 64.5429 53.8536C62.481 53.8536 60.4192 53.8536 58.2948 53.8536C58.2948 50.2478 58.2948 46.6419 58.2948 42.9268C58.0371 42.9268 57.7793 42.9268 57.5138 42.9268C57.4695 43.2588 57.4252 43.5908 57.3796 43.9329C57.1089 45.3433 56.6761 46.5684 56.147 47.9024C55.8873 48.5634 55.8873 48.5634 55.6223 49.2378C55.3618 49.8744 55.0881 50.5067 54.7803 51.1219C52.5895 51.1219 50.3988 51.1219 48.1417 51.1219C47.6827 50.0501 47.2277 48.9768 46.7749 47.9024C46.6445 47.5991 46.5141 47.2957 46.3798 46.9832C46.2565 46.6889 46.1332 46.3946 46.0061 46.0914C45.8916 45.8217 45.777 45.5519 45.6591 45.274C45.4081 44.4878 45.4081 44.4878 45.4081 42.9268C45.1504 42.9268 44.8927 42.9268 44.6271 42.9268C44.6271 46.5326 44.6271 50.1385 44.6271 53.8536C42.5652 53.8536 40.5034 53.8536 38.379 53.8536C38.5951 46.1603 38.993 38.5049 39.5505 30.8292Z" fill="#FCD54C"/>
<path d="M90.7068 25.3658C95.8655 25.2089 95.8655 25.2089 101.128 25.0487C102.203 25.0026 103.279 24.9564 104.386 24.9088C112.05 24.7194 112.05 24.7194 114.755 27.1652C117.261 29.8585 117.261 29.8585 117.261 31.2195C110.689 31.2195 104.117 31.2195 97.3454 31.2195C97.3454 33.1512 97.3454 35.0829 97.3454 37.0731C101.083 37.0731 104.82 37.0731 108.67 37.0731C108.67 39.1336 108.67 41.1941 108.67 43.317C104.933 43.317 101.196 43.317 97.3454 43.317C97.3454 47.0517 97.3454 50.7863 97.3454 54.6341C95.1546 54.6341 92.9639 54.6341 90.7068 54.6341C90.7068 44.9756 90.7068 35.317 90.7068 25.3658Z" fill="#FCD54C"/>
<path d="M16.5107 24.5853C22.6963 24.5853 28.882 24.5853 35.255 24.5853C35.255 26.517 35.255 28.4487 35.255 30.439C31.2601 30.439 27.2653 30.439 23.1493 30.439C23.1493 32.4995 23.1493 34.56 23.1493 36.6829C26.8865 36.6829 30.6236 36.6829 34.474 36.6829C34.474 38.6146 34.474 40.5463 34.474 42.5365C30.7369 42.5365 26.9997 42.5365 23.1493 42.5365C23.1493 46.2712 23.1493 50.0058 23.1493 53.8536C20.9586 53.8536 18.7679 53.8536 16.5107 53.8536C16.5107 44.1951 16.5107 34.5365 16.5107 24.5853Z" fill="#FCD54C"/>
<path d="M244.566 25.3658C246.628 25.3658 248.69 25.3658 250.814 25.3658C250.814 27.9415 250.814 30.5171 250.814 33.1707C252.231 33.1707 253.649 33.1707 255.109 33.1707C255.109 34.8449 255.109 36.519 255.109 38.2439C253.692 38.2439 252.274 38.2439 250.814 38.2439C250.943 41.8497 251.072 45.4556 251.204 49.1707C252.364 49.2995 253.524 49.4283 254.719 49.561C255.163 51.2258 255.5 52.5131 255.5 54.2439C252.866 55.4741 249.774 55.4958 247.055 54.5122C245.726 53.5682 245.088 53.0771 244.566 51.5122C244.533 50.5029 244.521 49.5045 244.528 48.4954C244.528 48.2026 244.529 47.9097 244.529 47.608C244.532 46.6736 244.536 45.7393 244.541 44.8049C244.543 44.171 244.545 43.5371 244.547 42.9032C244.551 41.3501 244.558 39.797 244.566 38.2439C243.535 38.2439 242.504 38.2439 241.442 38.2439C241.442 36.5697 241.442 34.8956 241.442 33.1707C242.473 33.1707 243.504 33.1707 244.566 33.1707C244.566 30.5951 244.566 28.0195 244.566 25.3658Z" fill="#FCD54C"/>
<path d="M130.929 25.3658C132.991 25.3658 135.052 25.3658 137.177 25.3658C137.177 27.9415 137.177 30.5171 137.177 33.1707C138.594 33.1707 140.012 33.1707 141.472 33.1707C141.472 34.8449 141.472 36.519 141.472 38.2439C140.055 38.2439 138.637 38.2439 137.177 38.2439C137.306 41.8497 137.435 45.4556 137.567 49.1707C138.727 49.2995 139.887 49.4283 141.082 49.561C141.34 51.1063 141.597 52.6517 141.863 54.2439C139.052 55.0762 136.343 55.555 133.516 54.561C132.344 53.7521 131.701 53.1039 130.929 51.9024C130.795 50.7885 130.745 49.8326 130.776 48.7241C130.778 48.4237 130.781 48.1233 130.783 47.8138C130.792 46.8593 130.811 45.9055 130.831 44.9512C130.839 44.3021 130.846 43.6529 130.852 43.0038C130.87 41.4169 130.897 39.8305 130.929 38.2439C129.898 38.2439 128.867 38.2439 127.805 38.2439C127.805 36.5697 127.805 34.8956 127.805 33.1707C128.836 33.1707 129.867 33.1707 130.929 33.1707C130.929 30.5951 130.929 28.0195 130.929 25.3658Z" fill="#FCD54C"/>
<path d="M126.243 25.3658C126.243 35.0244 126.243 44.6829 126.243 54.6341C124.052 54.6341 121.861 54.6341 119.604 54.6341C119.533 51.5776 119.476 48.5215 119.442 45.4644C119.426 44.0446 119.404 42.6253 119.368 41.2059C119.334 39.8344 119.316 38.4635 119.308 37.0916C119.299 36.3169 119.275 35.5425 119.25 34.7682C119.248 31.3043 119.248 31.3043 120.29 29.9137C121.07 29.2279 121.856 28.6604 122.728 28.0976C123.468 27.3673 124.183 26.6224 124.897 25.8674C125.462 25.3658 125.462 25.3658 126.243 25.3658Z" fill="#FCD54C"/>
<path d="M239.489 32.7805C239.489 34.7122 239.489 36.6439 239.489 38.6342C236.976 39.9864 236.976 39.9864 234.413 41.3659C234.284 45.7444 234.155 50.123 234.022 54.6342C231.96 54.6342 229.899 54.6342 227.774 54.6342C227.774 47.5513 227.774 40.4683 227.774 33.1708C229.578 33.1708 231.382 33.1708 233.241 33.1708C233.241 33.8147 233.241 34.4586 233.241 35.122C233.561 34.953 233.882 34.7839 234.211 34.6098C234.843 34.2838 234.843 34.2838 235.487 33.9512C235.903 33.7339 236.32 33.5166 236.75 33.2927C237.927 32.7805 237.927 32.7805 239.489 32.7805Z" fill="#FCD54C"/>
<path d="M175.446 32.7805C175.446 34.7122 175.446 36.6439 175.446 38.6342C172.933 39.9864 172.933 39.9864 170.37 41.3659C170.241 45.7444 170.112 50.123 169.979 54.6342C167.917 54.6342 165.856 54.6342 163.731 54.6342C163.731 47.5513 163.731 40.4683 163.731 33.1708C165.535 33.1708 167.339 33.1708 169.198 33.1708C169.327 33.6859 169.456 34.201 169.589 34.7317C169.946 34.5909 170.304 34.45 170.672 34.3049C171.136 34.1238 171.6 33.9427 172.078 33.7561C172.54 33.575 173.002 33.3939 173.479 33.2073C174.665 32.7805 174.665 32.7805 175.446 32.7805Z" fill="#FCD54C"/>
<path d="M110.623 33.9512C112.684 33.9512 114.746 33.9512 116.871 33.9512C116.871 40.7765 116.871 47.6019 116.871 54.6341C114.809 54.6341 112.747 54.6341 110.623 54.6341C110.623 47.8087 110.623 40.9834 110.623 33.9512Z" fill="#FCD54C"/>
<path d="M158.093 35.0975C158.565 35.1096 158.565 35.1096 159.045 35.1219C160.657 37.4337 160.808 39.1547 160.705 41.9268C160.673 43.1583 160.64 44.3897 160.607 45.6585C156.741 45.6585 152.875 45.6585 148.892 45.6585C148.634 45.1434 148.377 44.6283 148.111 44.0975C148.304 43.518 148.304 43.518 148.502 42.9268C148.759 43.0556 149.017 43.1844 149.283 43.317C149.411 43.0595 149.54 42.8019 149.673 42.5366C150.954 41.6829 151.755 41.5436 153.261 41.317C153.685 41.2517 154.11 41.1863 154.547 41.1189C154.871 41.0716 155.196 41.0243 155.531 40.9756C155.514 40.6109 155.497 40.2462 155.48 39.8704C155.544 38.3191 156.119 37.8441 157.093 36.6829C156.964 36.2966 156.835 35.9102 156.702 35.5122C157.093 35.1219 157.093 35.1219 158.093 35.0975Z" fill="#FCD54C"/>
<path d="M90.7068 25.3658C97.4079 25.3658 104.109 25.3658 111.013 25.3658C111.013 25.4946 111.013 25.6234 111.013 25.7561C104.57 25.7561 98.1264 25.7561 91.4878 25.7561C91.4878 35.0283 91.4878 44.3005 91.4878 53.8537C93.4208 53.8537 95.3538 53.8537 97.3454 53.8537C97.3454 54.1112 97.3454 54.3688 97.3454 54.6341C95.1546 54.6341 92.9639 54.6341 90.7068 54.6341C90.7068 44.9756 90.7068 35.3171 90.7068 25.3658Z" fill="#FCD54C"/>
<path d="M144.987 34.7314C148.064 32.3335 153.378 31.7237 157.02 33.4394C158.704 34.6605 159.8 35.9425 160.608 37.8535C160.696 38.783 160.696 38.7832 160.684 39.7988C160.682 40.1275 160.68 40.4562 160.678 40.7949C160.671 41.2085 160.664 41.6227 160.656 42.0488C160.64 43.3688 160.624 44.6889 160.608 46.0488H149.282C149.754 48.5341 149.754 48.5343 150.454 49.1709C151.443 49.2105 152.419 49.2259 153.407 49.2197C153.691 49.219 153.974 49.2176 154.267 49.2168C156.149 49.2016 157.967 49.09 159.826 48.7803C160.02 51.0982 160.02 51.0984 160.217 53.4629C156.084 55.2897 151.688 55.7994 147.33 54.2441C145.11 53.0495 143.834 51.5697 143.034 49.1709C142.928 47.5881 142.912 46.005 142.898 44.4189C142.888 43.6438 142.866 42.8686 142.844 42.0937C142.817 39.1669 142.908 36.9317 144.987 34.7314ZM152.626 37.707C151.586 37.6967 151.027 37.7365 150.148 38.3017C149.673 39.0243 149.673 39.0247 149.673 41.3662H155.14C155.14 39.0248 155.14 39.0241 154.359 37.8535C154.086 37.8006 153.82 37.7495 153.555 37.6982C153.086 37.7028 153.086 37.7025 152.626 37.707Z" fill="#FCD54C"/>
<path d="M217.125 32.6049C219.577 32.5947 221.844 32.8526 223.869 34.3412C225.692 36.3802 225.64 38.1601 225.584 40.7533C225.582 41.1397 225.579 41.5261 225.577 41.9242C225.568 43.1529 225.548 44.3812 225.528 45.6098C225.52 46.4451 225.514 47.2804 225.508 48.1156C225.491 50.1583 225.464 52.2011 225.431 54.2436C224.601 54.2646 223.771 54.2798 222.941 54.2924C222.248 54.306 222.248 54.3059 221.541 54.3197C220.355 54.2435 220.354 54.2437 219.573 53.4633C219.332 53.576 219.091 53.689 218.843 53.8051C216.603 54.7863 214.611 55.4949 212.154 55.0248C210.156 53.9893 208.961 52.8659 208.249 50.7318C208.192 49.969 208.163 49.2037 208.151 48.4389C208.136 47.8371 208.136 47.8369 208.121 47.2231C208.327 45.341 209.029 44.4475 210.424 43.2016C212.213 42.3135 213.655 42.362 215.62 42.4389C215.963 42.4459 216.307 42.4531 216.66 42.4604C217.501 42.4786 218.342 42.5066 219.183 42.5365C219.138 41.9672 219.088 41.3982 219.036 40.8295C219.009 40.5126 218.982 40.1951 218.954 39.8686C218.859 38.9451 218.859 38.9446 218.012 38.2436C217.103 38.1352 217.102 38.1353 216.056 38.1674C215.671 38.1699 215.285 38.1726 214.889 38.1752C214.486 38.1817 214.082 38.188 213.667 38.1947C213.261 38.1983 212.855 38.2019 212.437 38.2055C211.431 38.2147 210.425 38.2287 209.42 38.2436C209.291 36.6983 209.163 35.153 209.03 33.561C211.377 32.749 213.537 32.6376 216.01 32.6342C216.562 32.6199 216.562 32.6195 217.125 32.6049ZM215.865 46.7914C214.513 46.8441 214.513 46.8439 214.448 48.3901C214.497 49.5608 214.497 49.5613 214.888 49.9516C216.541 50.0451 217.764 50.0775 219.183 49.1703V46.8295C218.715 46.8226 218.715 46.8226 218.257 46.8158C217.85 46.8122 217.455 46.8086 217.06 46.8051C216.456 46.7982 216.456 46.7982 215.865 46.7914Z" fill="#FCD54C"/>
<path d="M66.4954 10.5366C66.882 10.5366 67.2686 10.5366 67.6669 10.5366C67.7957 11.3093 67.9246 12.082 68.0574 12.8781C68.3151 12.8781 68.5728 12.8781 68.8384 12.8781C68.9673 12.1054 69.0961 11.3327 69.2289 10.5366C69.6155 10.5366 70.0021 10.5366 70.4004 10.5366C70.4004 11.9532 70.4004 13.3698 70.4004 14.8293C70.1427 14.8293 69.8849 14.8293 69.6194 14.8293C69.4905 14.443 69.3617 14.0566 69.2289 13.6586C69.1 13.9161 68.9712 14.1737 68.8384 14.4391C68.4518 14.3103 68.0652 14.1815 67.6669 14.0488C67.538 14.3064 67.4091 14.5639 67.2764 14.8293C67.0186 14.8293 66.7609 14.8293 66.4954 14.8293C66.4954 13.4127 66.4954 11.9961 66.4954 10.5366Z" fill="#FCD54C"/>
<path d="M178.18 25.3658C180.371 25.3658 182.561 25.3658 184.819 25.3658C184.69 25.6234 184.561 25.881 184.428 26.1463C182.717 26.4816 181.088 26.5366 179.351 26.5366C178.524 27.3636 178.798 29.1198 178.741 30.2683C178.724 30.5829 178.708 30.8976 178.69 31.2218C178.649 32.0014 178.609 32.7812 178.57 33.561C178.442 33.561 178.313 33.561 178.18 33.561C178.18 30.8566 178.18 28.1522 178.18 25.3658Z" fill="#FCD54C"/>
<path d="M39.5505 30.8292C41.7413 30.8292 43.932 30.8292 46.1891 30.8292C48.1417 35.4146 48.1417 35.4146 48.1417 36.2926C47.8839 36.2926 47.6262 36.2926 47.3606 36.2926C47.2318 35.6487 47.1029 35.0048 46.9701 34.3414C46.3258 34.3414 45.6815 34.3414 45.0176 34.3414C45.1465 34.0436 45.2753 33.7458 45.4081 33.439C45.8667 32.3938 45.8667 32.3938 45.7986 31.2195C43.8656 31.2195 41.9326 31.2195 39.941 31.2195C39.8122 31.6058 39.6833 31.9922 39.5505 32.3902C39.5505 31.8751 39.5505 31.36 39.5505 30.8292Z" fill="#FCD54C"/>
<path d="M62.5903 10.5366C63.6213 10.5366 64.6522 10.5366 65.7144 10.5366C65.7144 10.923 65.7144 11.3093 65.7144 11.7074C65.4566 11.7074 65.1989 11.7074 64.9334 11.7074C64.9334 12.7376 64.9334 13.7678 64.9334 14.8293C64.5468 14.8293 64.1602 14.8293 63.7618 14.8293C63.7618 13.6703 63.7618 12.5113 63.7618 11.3171C63.3752 11.3171 62.9886 11.3171 62.5903 11.3171C62.5903 11.0595 62.5903 10.802 62.5903 10.5366Z" fill="#FCD54C"/>
<path d="M141.082 51.1219C141.211 51.1219 141.34 51.1219 141.472 51.1219C141.601 52.1522 141.73 53.1824 141.863 54.2439C139.46 54.9554 137.334 55.1166 134.834 55.0244C134.834 54.7668 134.834 54.5093 134.834 54.2439C135.159 54.2203 135.483 54.1966 135.818 54.1723C136.242 54.1396 136.666 54.1069 137.104 54.0732C137.525 54.0415 137.946 54.0098 138.38 53.9771C139.543 53.8919 139.543 53.8919 140.691 53.4634C140.82 52.6907 140.949 51.918 141.082 51.1219Z" fill="#FCD54C"/>
<path d="M174.665 32.7805C174.923 32.7805 175.18 32.7805 175.446 32.7805C175.446 34.7122 175.446 36.6439 175.446 38.6342C175.317 38.6342 175.188 38.6342 175.055 38.6342C175.032 38.3987 175.008 38.1633 174.984 37.9208C174.935 37.4529 174.935 37.4529 174.885 36.9756C174.853 36.6678 174.821 36.3599 174.789 36.0427C174.687 35.1261 174.687 35.1261 174.432 34.2744C174.275 33.561 174.275 33.561 174.665 32.7805Z" fill="#FCD54C"/>
<path d="M111.013 25.3658C111.942 25.4346 112.459 25.6379 113.114 26.3033C113.599 26.8903 114.064 27.4932 114.528 28.0976C113.15 28.0976 112.783 27.8467 111.794 26.9268C111.794 26.5405 111.794 26.1541 111.794 25.7561C111.536 25.6273 111.279 25.4985 111.013 25.3658Z" fill="#FCD54C"/>
<path d="M141.082 51.1219C141.211 51.1219 141.34 51.1219 141.472 51.1219C141.601 52.1522 141.73 53.1824 141.863 54.2439C141.09 54.3727 140.317 54.5015 139.52 54.6341C139.52 54.3766 139.52 54.119 139.52 53.8537C139.906 53.7249 140.293 53.5961 140.691 53.4634C140.82 52.6907 140.949 51.918 141.082 51.1219Z" fill="#FCD54C"/>
<path d="M48.5321 38.2439C49.6643 39.1786 49.8995 39.9268 50.0941 41.3658C49.8364 41.3658 49.5787 41.3658 49.3131 41.3658C49.2004 41.1324 49.0876 40.899 48.9714 40.6585C48.5136 39.7294 48.5136 39.7294 47.7511 38.6341C48.0088 38.5054 48.2666 38.3766 48.5321 38.2439Z" fill="#FCD54C"/>
<path d="M150.845 32.7805C150.458 33.3601 150.458 33.3601 150.064 33.9513C149.162 33.8225 148.259 33.6937 147.33 33.561C148.672 32.6673 149.277 32.7109 150.845 32.7805Z" fill="#FCD54C"/>
</g>
<defs>
<clipPath id="clip0_337_113">
<rect width="255" height="80" fill="white" transform="translate(0.5)"/>
</clipPath>
</defs>
</svg>
