<svg width="16" height="16" viewBox="0 0 16 16" fill="none" xmlns="http://www.w3.org/2000/svg">
<path d="M8.16791 4.39981C7.51725 4.39981 6.91725 4.56248 6.36791 4.88781C5.81858 5.21315 5.38125 5.65048 5.05591 6.19981C4.73058 6.74915 4.56791 7.34915 4.56791 7.99981C4.56791 8.65048 4.73058 9.25048 5.05591 9.79981C5.38125 10.3491 5.81858 10.7838 6.36791 11.1038C6.91725 11.4238 7.51725 11.5838 8.16791 11.5838C8.81858 11.5838 9.41858 11.4238 9.96791 11.1038C10.5172 10.7838 10.9519 10.3491 11.2719 9.79981C11.5919 9.25048 11.7519 8.65048 11.7519 7.99981C11.7519 7.34915 11.5919 6.74915 11.2719 6.19981C10.9519 5.65048 10.5172 5.21315 9.96791 4.88781C9.41858 4.56248 8.81858 4.39981 8.16791 4.39981ZM8.16791 10.3358C7.74125 10.3358 7.34925 10.2318 6.99191 10.0238C6.63458 9.81581 6.35191 9.53048 6.14391 9.16781C5.93591 8.80515 5.83191 8.41581 5.83191 7.99981C5.83191 7.58381 5.93591 7.19448 6.14391 6.83181C6.35191 6.46915 6.63458 6.18381 6.99191 5.97581C7.34925 5.76781 7.74125 5.66381 8.16791 5.66381C8.59458 5.66381 8.98658 5.76781 9.34391 5.97581C9.70125 6.18381 9.98391 6.46648 10.1919 6.82381C10.3999 7.18115 10.5039 7.57315 10.5039 7.99981C10.5039 8.42648 10.3999 8.81848 10.1919 9.17581C9.98391 9.53315 9.69858 9.81581 9.33591 10.0238C8.97325 10.2318 8.58391 10.3358 8.16791 10.3358ZM12.7439 4.25581C12.7439 4.49048 12.6612 4.69048 12.4959 4.85581C12.3306 5.02115 12.1306 5.10381 11.8959 5.10381C11.6612 5.10381 11.4639 5.02115 11.3039 4.85581C11.1439 4.69048 11.0639 4.49048 11.0639 4.25581C11.0639 4.02114 11.1439 3.82381 11.3039 3.66381C11.4639 3.50381 11.6612 3.42381 11.8959 3.42381C12.1306 3.42381 12.3306 3.50381 12.4959 3.66381C12.6612 3.82381 12.7439 4.02114 12.7439 4.25581ZM15.1119 5.10381C15.0906 4.49581 14.9999 3.96781 14.8399 3.51981C14.6586 3.00781 14.3732 2.55981 13.9839 2.17581C13.5946 1.79181 13.1439 1.50914 12.6319 1.32781C12.1839 1.16781 11.6559 1.07181 11.0479 1.03981C10.4719 1.00781 9.50925 0.991812 8.15991 0.991812C6.81058 0.991812 5.84791 1.00781 5.27191 1.03981C4.65325 1.07181 4.12525 1.16781 3.68791 1.32781C3.17591 1.50914 2.72791 1.79181 2.34391 2.17581C1.95991 2.55981 1.67725 3.00781 1.49591 3.51981C1.32525 3.96781 1.22925 4.49581 1.20791 5.10381C1.17591 5.67981 1.15991 6.64248 1.15991 7.99181C1.15991 9.34115 1.17591 10.3038 1.20791 10.8798C1.22925 11.4878 1.31991 12.0158 1.47991 12.4638C1.66125 12.9758 1.94925 13.4291 2.34391 13.8238C2.73858 14.2185 3.19191 14.5011 3.70391 14.6718C4.13058 14.8318 4.65325 14.9225 5.27191 14.9438C5.84791 14.9865 6.81058 15.0078 8.15991 15.0078C9.50925 15.0078 10.4719 14.9865 11.0479 14.9438C11.6559 14.9225 12.1839 14.8318 12.6319 14.6718C13.1439 14.4905 13.5946 14.2051 13.9839 13.8158C14.3732 13.4265 14.6586 12.9758 14.8399 12.4638C14.9999 12.0158 15.0906 11.4878 15.1119 10.8798C15.1439 10.3038 15.1599 9.34381 15.1599 7.99981C15.1599 6.65581 15.1439 5.69048 15.1119 5.10381ZM13.6239 12.1278C13.5066 12.4265 13.3332 12.6931 13.1039 12.9278C12.8746 13.1625 12.6052 13.3385 12.2959 13.4558C11.9439 13.5945 11.3732 13.6851 10.5839 13.7278C10.1359 13.7491 9.49058 13.7545 8.64791 13.7438H7.68791C6.84525 13.7545 6.19991 13.7491 5.75191 13.7278C4.95191 13.6851 4.38125 13.5945 4.03991 13.4558C3.73058 13.3385 3.46125 13.1651 3.23191 12.9358C3.00258 12.7065 2.82925 12.4371 2.71191 12.1278C2.57325 11.7758 2.48258 11.2051 2.43991 10.4158C2.41858 9.96781 2.41325 9.32248 2.42391 8.47981V7.51981C2.41325 6.67715 2.41858 6.03181 2.43991 5.58381C2.48258 4.78381 2.57325 4.21315 2.71191 3.87181C2.82925 3.56248 3.00258 3.29315 3.23191 3.06381C3.46125 2.83448 3.73058 2.66115 4.03991 2.54381C4.38125 2.40515 4.94658 2.31448 5.73591 2.27181C6.18391 2.25048 6.83458 2.24514 7.68791 2.25581H8.64791C9.49058 2.24514 10.1359 2.25048 10.5839 2.27181C11.3732 2.31448 11.9439 2.40515 12.2959 2.54381C12.6052 2.66115 12.8746 2.83448 13.1039 3.06381C13.3332 3.29315 13.5066 3.56248 13.6239 3.87181C13.7626 4.21315 13.8532 4.77848 13.8959 5.56781C13.9172 6.01581 13.9226 6.66648 13.9119 7.51981V8.47981C13.9226 9.32248 13.9172 9.96781 13.8959 10.4158C13.8532 11.2051 13.7626 11.7758 13.6239 12.1278Z" fill="#FD1D1D"/>
</svg>
