<svg width="16" height="16" viewBox="0 0 16 16" fill="none" xmlns="http://www.w3.org/2000/svg">
<g clip-path="url(#clip0_161_939)">
<path d="M4.53741 13.625H1.82241V4.865H4.53741V13.625ZM3.17241 3.665C2.89241 3.665 2.62991 3.5925 2.38491 3.4475C2.13991 3.3025 1.94741 3.11 1.80741 2.87C1.66741 2.63 1.59741 2.365 1.59741 2.075C1.59741 1.785 1.66741 1.52 1.80741 1.28C1.94741 1.04 2.13741 0.85 2.37741 0.71C2.61741 0.570001 2.88241 0.5 3.17241 0.5C3.46241 0.5 3.72741 0.570001 3.96741 0.71C4.20741 0.85 4.39741 1.04 4.53741 1.28C4.67741 1.52 4.74741 1.785 4.74741 2.075C4.74741 2.365 4.67741 2.63 4.53741 2.87C4.39741 3.11 4.20491 3.3025 3.95991 3.4475C3.71491 3.5925 3.45241 3.665 3.17241 3.665ZM14.7224 13.625H12.0074V9.365C12.0074 8.905 11.9874 8.555 11.9474 8.315C11.8874 7.925 11.7624 7.625 11.5724 7.415C11.3524 7.165 11.0274 7.04 10.5974 7.04C9.94741 7.04 9.49741 7.27 9.24741 7.73C9.05741 8.08 8.96241 8.6 8.96241 9.29V13.625H6.24741V4.865H8.85741V6.05H8.88741C9.08741 5.67 9.39741 5.35 9.81741 5.09C10.2974 4.79 10.8474 4.64 11.4674 4.64C12.3374 4.64 13.0274 4.825 13.5374 5.195C13.9874 5.525 14.3024 6.02 14.4824 6.68C14.6424 7.23 14.7224 7.94 14.7224 8.81V13.625Z" fill="#0077B5"/>
</g>
<defs>
<clipPath id="clip0_161_939">
<rect width="15" height="15" fill="white" transform="matrix(1 0 0 -1 0.5 15.5)"/>
</clipPath>
</defs>
</svg>
