<svg width="282" height="15" viewBox="0 0 282 15" fill="none" xmlns="http://www.w3.org/2000/svg">
<g clip-path="url(#clip0_337_166)">
<mask id="mask0_337_166" style="mask-type:luminance" maskUnits="userSpaceOnUse" x="0" y="1" width="36" height="13">
<path d="M36 1.60022H0V13.6002H36V1.60022Z" fill="white"/>
</mask>
<g mask="url(#mask0_337_166)">
<path d="M31.6 5.9002L32.2 9.1002H29.8L31 6.0002L31.2 5.4002L31.3 4.9002C31.3 5.0002 31.6 5.9002 31.6 5.9002ZM8.89999 13.0002L13.3 2.1002H10.3L7.59999 9.6002L7.29999 8.0002L6.29999 3.0002C6.19999 2.4002 5.69999 2.0002 4.89999 2.0002H0.399988L0.299988 2.2002C1.49999 2.4002 2.39999 2.8002 3.29999 3.4002L5.89999 13.1002H8.99999L8.89999 13.0002ZM15.6 13.0002L17.4 2.1002H14.6L12.8 13.2002H15.6V13.0002ZM25.7 9.5002C25.7 8.3002 24.9 7.3002 23.3 6.4002C22.1 5.9002 21.5 5.5002 21.5 5.1002C21.5 4.5002 22.1 4.2002 23.3 4.2002C24 4.2002 24.7 4.2002 25.3 4.7002H25.7L26 2.2002C25.1 1.8002 24.3 1.7002 23.4 1.7002C22.5 1.7002 21.7 1.9002 21 2.2002C20.3 2.5002 19.7 2.9002 19.2 3.5002C18.8 4.1002 18.6 4.7002 18.6 5.4002C18.6 6.6002 19.4 7.6002 21.2 8.5002C22.1 9.0002 22.6 9.40019 22.6 9.80019C22.6 10.5002 22 11.0002 20.9 11.0002C20 11.0002 19 10.8002 18.2 10.4002L17.8 10.2002L17.3 12.6002C18.3 13.0002 19.4 13.3002 20.5 13.3002C21.8 13.4002 23 13.0002 24 12.4002C25.2 11.6002 25.7 10.6002 25.7 9.5002ZM35.7 13.0002L33.4 2.1002H31.2C30.5 2.1002 30 2.3002 29.8 3.0002L25.5 13.2002H28.5L29 11.6002H32.8L33.2 13.3002H35.8V13.0002H35.7Z" fill="url(#paint0_linear_337_166)"/>
</g>
</g>
<g clip-path="url(#clip1_337_166)">
<mask id="mask1_337_166" style="mask-type:luminance" maskUnits="userSpaceOnUse" x="52" y="0" width="24" height="16">
<path d="M76 0.200195H52V15.0002H76V0.200195Z" fill="white"/>
</mask>
<g mask="url(#mask1_337_166)">
<path d="M59.4 15.0002C63.4869 15.0002 66.8 11.6871 66.8 7.6002C66.8 3.51329 63.4869 0.200195 59.4 0.200195C55.3131 0.200195 52 3.51329 52 7.6002C52 11.6871 55.3131 15.0002 59.4 15.0002Z" fill="#DD3D31"/>
<path d="M68.6 15.0002C72.6869 15.0002 76 11.6871 76 7.6002C76 3.51329 72.6869 0.200195 68.6 0.200195C64.5131 0.200195 61.2 3.51329 61.2 7.6002C61.2 11.6871 64.5131 15.0002 68.6 15.0002Z" fill="#EEB046"/>
<path fill-rule="evenodd" clip-rule="evenodd" d="M64 13.5002C67.2 11.0002 67.8 6.30017 65.3 3.10017C64.9 2.60017 64.5 2.20017 64 1.80017C60.8 4.30017 60.2 9.00017 62.7 12.2002C63.1 12.7002 63.5 13.1002 64 13.5002Z" fill="#EF7D2F"/>
</g>
</g>
<g clip-path="url(#clip2_337_166)">
<mask id="mask2_337_166" style="mask-type:luminance" maskUnits="userSpaceOnUse" x="92" y="0" width="53" height="15">
<path d="M144.5 0.60022H92V14.6002H144.5V0.60022Z" fill="white"/>
</mask>
<g mask="url(#mask2_337_166)">
<path d="M98.6375 0.712769H94.6125C94.3375 0.712769 94.1 0.91276 94.0625 1.18776L92.4375 11.4877C92.4 11.6877 92.5625 11.8752 92.775 11.8752H94.7C94.975 11.8752 95.2125 11.6753 95.25 11.4003L95.6875 8.62526C95.725 8.35026 95.9625 8.15027 96.2375 8.15027H97.5C100.15 8.15027 101.675 6.87528 102.075 4.32528C102.25 3.21278 102.088 2.33777 101.562 1.72527C100.987 1.07527 99.975 0.712769 98.6375 0.712769ZM99.1 4.48777C98.875 5.92527 97.775 5.92527 96.7125 5.92527H96.1L96.525 3.23777C96.55 3.07527 96.6875 2.95028 96.85 2.95028H97.125C97.85 2.95028 98.5375 2.95027 98.8875 3.36277C99.1125 3.61277 99.175 3.97527 99.1 4.48777Z" fill="#283B82"/>
<path d="M110.65 4.43774H108.725C108.563 4.43774 108.425 4.56275 108.4 4.72525L108.313 5.26276L108.175 5.06274C107.762 4.46274 106.825 4.25024 105.9 4.25024C103.775 4.25024 101.963 5.86274 101.6 8.12524C101.413 9.25024 101.675 10.3253 102.313 11.0878C102.9 11.7753 103.738 12.0627 104.738 12.0627C106.45 12.0627 107.4 10.9628 107.4 10.9628L107.313 11.5002C107.275 11.7002 107.438 11.8878 107.638 11.8878H109.375C109.65 11.8878 109.887 11.6878 109.925 11.4128L110.962 4.82526C111.012 4.62526 110.85 4.43774 110.65 4.43774ZM107.963 8.18774C107.775 9.28774 106.9 10.0253 105.788 10.0253C105.225 10.0253 104.788 9.85024 104.5 9.50024C104.213 9.16274 104.112 8.68775 104.2 8.15025C104.375 7.06275 105.263 6.30025 106.363 6.30025C106.913 6.30025 107.35 6.48776 107.65 6.82526C107.925 7.16276 108.05 7.65024 107.963 8.18774Z" fill="#283B82"/>
<path d="M120.9 4.43774H118.962C118.775 4.43774 118.6 4.52524 118.5 4.68774L115.837 8.61275L114.712 4.83775C114.637 4.60025 114.425 4.43774 114.175 4.43774H112.275C112.05 4.43774 111.887 4.66274 111.962 4.87524L114.087 11.1252L112.087 13.9502C111.925 14.1752 112.087 14.4752 112.362 14.4752H114.3C114.487 14.4752 114.65 14.3877 114.762 14.2377L121.2 4.95026C121.325 4.73776 121.162 4.43774 120.9 4.43774Z" fill="#283B82"/>
<path d="M127.3 0.712769H123.275C123 0.712769 122.763 0.91276 122.725 1.18776L121.1 11.4877C121.063 11.6877 121.225 11.8752 121.425 11.8752H123.5C123.688 11.8752 123.85 11.7377 123.888 11.5502L124.35 8.62526C124.388 8.35026 124.625 8.15027 124.9 8.15027H126.175C128.825 8.15027 130.35 6.87528 130.75 4.32528C130.925 3.21278 130.763 2.33777 130.238 1.72527C129.663 1.07527 128.65 0.712769 127.3 0.712769ZM127.763 4.48777C127.538 5.92527 126.438 5.92527 125.375 5.92527H124.775L125.2 3.23777C125.225 3.07527 125.363 2.95028 125.525 2.95028H125.8C126.525 2.95028 127.213 2.95027 127.563 3.36277C127.775 3.61277 127.838 3.97527 127.763 4.48777Z" fill="#469BDB"/>
<path d="M139.312 4.43774H137.387C137.225 4.43774 137.087 4.56275 137.062 4.72525L136.975 5.26276L136.837 5.06274C136.425 4.46274 135.487 4.25024 134.562 4.25024C132.437 4.25024 130.625 5.86274 130.262 8.12524C130.075 9.25024 130.337 10.3253 130.975 11.0878C131.562 11.7753 132.4 12.0627 133.4 12.0627C135.112 12.0627 136.062 10.9628 136.062 10.9628L135.975 11.5002C135.937 11.7002 136.1 11.8878 136.312 11.8878H138.05C138.325 11.8878 138.562 11.6878 138.6 11.4128L139.637 4.82526C139.675 4.62526 139.512 4.43774 139.312 4.43774ZM136.625 8.18774C136.437 9.28774 135.562 10.0253 134.45 10.0253C133.887 10.0253 133.45 9.85024 133.162 9.50024C132.875 9.16274 132.775 8.68775 132.862 8.15025C133.037 7.06275 133.925 6.30025 135.025 6.30025C135.575 6.30025 136.012 6.48776 136.312 6.82526C136.6 7.16276 136.712 7.65024 136.625 8.18774Z" fill="#469BDB"/>
<path d="M141.575 1.00022L139.925 11.5002C139.887 11.7002 140.05 11.8877 140.25 11.8877H141.912C142.187 11.8877 142.425 11.6877 142.462 11.4127L144.087 1.11273C144.125 0.912724 143.962 0.725227 143.762 0.725227H141.9C141.75 0.712727 141.612 0.837721 141.575 1.00022Z" fill="#469BDB"/>
</g>
</g>
<g clip-path="url(#clip3_337_166)">
<mask id="mask3_337_166" style="mask-type:luminance" maskUnits="userSpaceOnUse" x="161" y="0" width="41" height="15">
<path d="M201.5 0.60022H161.5V14.6002H201.5V0.60022Z" fill="white"/>
</mask>
<g mask="url(#mask3_337_166)">
<path d="M190.3 4.00017C191.2 4.00017 191.9 3.30017 191.9 2.40017C191.9 1.50017 191.2 0.800171 190.3 0.800171C189.4 0.800171 188.7 1.50017 188.7 2.40017C188.6 3.30017 189.3 4.00017 190.3 4.00017C190.3 4.10017 190.3 4.10017 190.3 4.00017ZM177.7 4.90017C177.6 5.10017 177.1 6.60017 175.8 8.20017V1.50017L172.4 2.20017V14.3002H175.8V10.6002C176.8 12.1002 177.3 14.3002 177.3 14.3002H181.4C181 12.6002 179.2 9.50017 179.2 9.50017C180.3 8.10017 181.1 6.60017 181.6 5.00017L177.7 4.90017ZM186.7 4.80017C183.6 4.90017 182.1 6.30017 182.1 9.00017V14.3002H185.5V10.0002C185.5 8.40017 185.7 7.70017 187.7 7.60017V4.90017C187.3 4.80017 186.7 4.80017 186.7 4.80017ZM166.6 6.30017C166.2 6.30017 165.2 6.20017 165.2 5.30017C165.2 4.20017 166.6 4.20017 167.1 4.20017C168 4.20017 169.2 4.50017 170.1 4.70017C170.4 4.80017 170.7 4.90017 171 5.00017V2.20017H170.9C169.9 1.80017 168.7 1.50017 166.5 1.50017C162.8 1.50017 161.5 3.70017 161.5 5.60017C161.5 6.70017 162 9.20017 166.3 9.50017C166.7 9.50017 167.6 9.60017 167.6 10.5002C167.6 11.2002 166.8 11.7002 165.5 11.7002C164 11.7002 162.6 11.3002 161.8 11.0002V14.0002C163.1 14.3002 164.5 14.5002 166.2 14.5002C169.9 14.5002 171.5 12.4002 171.5 10.4002C171.5 8.00017 169.7 6.50017 166.6 6.30017ZM188.6 14.3002H191.9V4.90017H188.6V14.3002ZM198.2 2.10017V14.3002H201.5V1.50017L198.2 2.10017ZM193.3 2.10017L196.6 1.50017V14.3002H193.3V2.10017Z" fill="#862565"/>
</g>
</g>
<g clip-path="url(#clip4_337_166)">
<mask id="mask4_337_166" style="mask-type:luminance" maskUnits="userSpaceOnUse" x="218" y="0" width="64" height="15">
<path d="M281.2 0.60022H218.5V14.6002H281.2V0.60022Z" fill="white"/>
</mask>
<g mask="url(#mask4_337_166)">
<path d="M229.6 0.60022H226.6C226.6 3.10022 225.4 5.40022 223.4 6.90022L222.2 7.90022L226.9 14.3002H230.8L226.4 8.40022C228.5 6.40022 229.6 3.60022 229.6 0.60022Z" fill="#1A1919"/>
<path d="M221.8 0.60022H218.7V14.3002H221.8V0.60022Z" fill="#1A1919"/>
<path d="M234.7 0.60022H231.7V14.3002H234.7V0.60022Z" fill="#1A1919"/>
<path d="M260.6 4.60022C259.5 4.60022 258.4 4.90022 257.7 5.90022V4.90022H254.9V14.3002H257.8V9.30022C257.8 7.90022 258.8 7.20022 259.9 7.20022C261.1 7.20022 261.9 7.90022 261.9 9.30022V14.3002H264.7V8.30022C264.6 6.10022 262.9 4.60022 260.6 4.60022Z" fill="#1A1919"/>
<path d="M243.6 4.90022V5.50022C242.8 4.90022 241.8 4.60022 240.8 4.60022C238 4.60022 235.8 6.80022 235.8 9.60022C235.8 12.4002 238 14.6002 240.8 14.6002C241.8 14.6002 242.8 14.3002 243.6 13.7002V14.3002H246.4V4.90022H243.6ZM241 12.0002C239.6 12.0002 238.4 10.9002 238.4 9.60022C238.4 8.30022 239.5 7.20022 241 7.20022C242.5 7.20022 243.6 8.30022 243.6 9.60022C243.6 10.9002 242.4 12.0002 241 12.0002Z" fill="#1A1919"/>
<path d="M250.8 6.10027V4.90027H247.9V14.3003H250.8V9.90027C250.8 8.40027 252.4 7.60027 253.5 7.60027V4.90027C252.4 4.90027 251.4 5.30027 250.8 6.10027Z" fill="#1A1919"/>
<path d="M273.4 4.90022V5.50022C272.6 4.90022 271.7 4.60022 270.6 4.60022C267.8 4.60022 265.6 6.80022 265.6 9.60022C265.6 12.4002 267.8 14.6002 270.6 14.6002C271.6 14.6002 272.6 14.3002 273.4 13.7002V14.3002H276.2V4.90022H273.4ZM270.9 12.0002C269.5 12.0002 268.3 10.9002 268.3 9.60022C268.3 8.30022 269.4 7.20022 270.9 7.20022C272.3 7.20022 273.5 8.30022 273.5 9.60022C273.4 10.9002 272.3 12.0002 270.9 12.0002Z" fill="#1A1919"/>
<path d="M278.4 5.10027C278.4 5.00027 278.3 4.90027 278.2 4.90027H277.9V5.60027H278V5.40027H278.1L278.3 5.60027H278.4L278.3 5.30027C278.4 5.30027 278.4 5.20027 278.4 5.10027ZM278.2 5.20027H278.1V5.00027H278.2C278.3 5.00027 278.3 5.00027 278.3 5.10027C278.3 5.20027 278.3 5.20027 278.2 5.20027Z" fill="#1A1919"/>
<path d="M278.2 4.60022C277.8 4.60022 277.5 4.90022 277.5 5.30022C277.5 5.70022 277.8 6.00022 278.2 6.00022C278.6 6.00022 278.9 5.70022 278.9 5.30022C278.9 4.90022 278.5 4.60022 278.2 4.60022ZM278.2 5.80022C277.9 5.80022 277.7 5.60022 277.7 5.20022C277.7 4.90022 277.9 4.60022 278.2 4.60022C278.5 4.60022 278.7 4.80022 278.7 5.20022C278.7 5.60022 278.4 5.80022 278.2 5.80022Z" fill="#1A1919"/>
<path d="M279.3 11.0002C278.3 11.0002 277.5 11.8002 277.5 12.8002C277.5 13.8002 278.3 14.6002 279.3 14.6002C280.3 14.6002 281.1 13.8002 281.1 12.8002C281.1 11.7002 280.3 11.0002 279.3 11.0002Z" fill="#1A1919"/>
</g>
</g>
<defs>
<linearGradient id="paint0_linear_337_166" x1="1.58189" y1="7.5086" x2="35.2449" y2="7.5086" gradientUnits="userSpaceOnUse">
<stop stop-color="#2C3572"/>
<stop offset="1" stop-color="#3C62AB"/>
</linearGradient>
<clipPath id="clip0_337_166">
<rect width="36" height="13" fill="white" transform="translate(0 1)"/>
</clipPath>
<clipPath id="clip1_337_166">
<rect width="24" height="15" fill="white" transform="translate(52)"/>
</clipPath>
<clipPath id="clip2_337_166">
<rect width="53" height="15" fill="white" transform="translate(92)"/>
</clipPath>
<clipPath id="clip3_337_166">
<rect width="41" height="15" fill="white" transform="translate(161)"/>
</clipPath>
<clipPath id="clip4_337_166">
<rect width="64" height="15" fill="white" transform="translate(218)"/>
</clipPath>
</defs>
</svg>
