<svg width="24" height="24" viewBox="0 0 24 24" fill="none" xmlns="http://www.w3.org/2000/svg">
<path d="M3.79405 14.97C4.33105 17.657 4.60005 19 5.48705 19.865C5.65171 20.025 5.82838 20.1697 6.01705 20.299C7.04005 21 8.41005 21 11.15 21H12.853C15.592 21 16.961 21 17.983 20.3C18.173 20.1693 18.3497 20.0243 18.513 19.865C19.401 19 19.67 17.657 20.207 14.971C20.978 11.115 21.364 9.187 20.476 7.821C20.3152 7.57336 20.1274 7.3443 19.916 7.138C18.75 6 16.785 6 12.853 6H11.15C7.21605 6 5.25005 6 4.08405 7.138C3.87309 7.34435 3.68562 7.57341 3.52505 7.821C2.63705 9.187 3.02305 11.115 3.79505 14.971L3.79405 14.97Z" stroke="white" stroke-width="1.5"/>
<path d="M15 11C15.5523 11 16 10.5523 16 10C16 9.44772 15.5523 9 15 9C14.4477 9 14 9.44772 14 10C14 10.5523 14.4477 11 15 11Z" fill="white"/>
<path d="M9 11C9.55228 11 10 10.5523 10 10C10 9.44772 9.55228 9 9 9C8.44772 9 8 9.44772 8 10C8 10.5523 8.44772 11 9 11Z" fill="white"/>
<path d="M9 6V5C9 4.20435 9.31607 3.44129 9.87868 2.87868C10.4413 2.31607 11.2044 2 12 2C12.7956 2 13.5587 2.31607 14.1213 2.87868C14.6839 3.44129 15 4.20435 15 5V6" stroke="white" stroke-width="1.5" stroke-linecap="round"/>
</svg>
